<svg xmlns="http://www.w3.org/2000/svg" width="500" height="500" version="1.0" viewBox="0 0 375 375"><defs><clipPath id="a"><path d="M240 54.555h67V188h-67Zm0 0"/></clipPath><clipPath id="b"><path d="M134 187h94v133.805h-94Zm0 0"/></clipPath><clipPath id="c"><path d="M67.777 54.555H135V188H67.777Zm0 0"/></clipPath><clipPath id="d"><path d="M240 54.555h67V188h-67Zm0 0"/></clipPath><clipPath id="e"><path d="M134 187h94v133.805h-94Zm0 0"/></clipPath><clipPath id="f"><path d="M67.777 54.555H135V188H67.777Zm0 0"/></clipPath><clipPath id="g"><path d="M67.777 54.555H307v266.25H67.777Zm0 0"/></clipPath></defs><g clip-path="url(#a)"><path fill="#26dc6a" d="M306.953 81.176 293.668 107.8l-13.281 26.625-13.285 26.62-13.282 26.638-13.285-26.637 13.285-26.621 26.567-53.25 13.281-26.621Zm0 0"/></g><g clip-path="url(#b)"><path fill="#26dc6a" d="m187.402 320.805-13.28-26.625-13.286-26.625-13.281-26.621-13.285-26.625 13.285-26.625 13.28 26.625 13.286 26.625 13.281 26.62 13.286-26.62 13.28-26.625 13.286 26.625-13.285 26.62-13.281 26.626-13.286 26.625"/></g><g clip-path="url(#c)"><path fill="#26dc6a" d="m134.27 161.047-13.282 26.637-13.285-26.637-13.281-26.621L81.137 107.8 67.855 81.176l13.282-26.621 13.285 26.62 26.566 53.25Zm0 0"/></g><path fill="#fff" d="M304.297 299.504a12.01 12.01 0 0 1-1.86 2.703 11.808 11.808 0 0 1-2.527 2.09 11.739 11.739 0 0 1-2.996 1.324c-1.062.3-2.14.45-3.246.45a11.81 11.81 0 0 1-6.242-1.774 11.882 11.882 0 0 1-4.383-4.793l-2.656-5.324-13.285-26.625-13.282-26.621-13.285-26.625-13.281-26.625-13.285-26.637-13.281-26.621-7.653-15.336a6.317 6.317 0 0 0-2.32-2.543 6.14 6.14 0 0 0-1.59-.7 6.263 6.263 0 0 0-5.031.7 6.317 6.317 0 0 0-2.324 2.543l-7.649 15.336-13.285 26.62-13.281 26.638-13.285 26.625-13.282 26.625-13.285 26.62-13.281 26.626-2.656 5.324a11.923 11.923 0 0 1-1.86 2.703 11.808 11.808 0 0 1-2.527 2.09 11.863 11.863 0 0 1-9.484 1.324 11.704 11.704 0 0 1-3-1.324 11.882 11.882 0 0 1-4.383-4.793 11.924 11.924 0 0 1-1.25-5.324 11.915 11.915 0 0 1 1.25-5.325l10.625-21.3 13.285-26.621 13.281-26.625 13.285-26.625 13.282-26.637 13.285-26.621 13.28-26.625 13.231-26.625 2.657-5.324c.492-.989 1.109-1.891 1.855-2.707a11.822 11.822 0 0 1 5.524-3.422 11.715 11.715 0 0 1 3.246-.453c1.105 0 2.187.148 3.246.453 1.062.3 2.062.742 3 1.324a11.727 11.727 0 0 1 2.523 2.098 11.767 11.767 0 0 1 1.856 2.707l2.66 5.324 13.281 26.625 13.285 26.625 13.281 26.62 13.286 26.642 13.28 26.62 13.286 26.626 13.281 26.62 10.63 21.301c.417.825.737 1.684.952 2.582.22.899.332 1.813.336 2.735.004.926-.097 1.84-.304 2.738-.211.902-.52 1.766-.93 2.594Zm0 0"/><g clip-path="url(#d)"><path fill="#26dc6a" d="M306.953 81.176 293.668 107.8l-13.281 26.625-13.285 26.62-13.282 26.638-13.285-26.637 13.285-26.621 26.567-53.25 13.281-26.621Zm0 0"/></g><g clip-path="url(#e)"><path fill="#26dc6a" d="m187.402 320.805-13.336-26.625-13.285-26.625-13.281-26.621-13.285-26.625 13.285-26.625 13.281 26.625 13.285 26.625 7.633 15.332c.262.527.594 1.007.988 1.445a6.37 6.37 0 0 0 2.938 1.824 6.318 6.318 0 0 0 3.457 0 6.427 6.427 0 0 0 1.598-.707c.5-.312.949-.683 1.343-1.117.395-.438.723-.918.985-1.445l7.625-15.332 13.281-26.625 13.285 26.625-13.285 26.62-13.281 26.626-13.285 26.625"/></g><g clip-path="url(#f)"><path fill="#26dc6a" d="m134.27 161.047-13.282 26.637-13.285-26.637-13.281-26.621L81.137 107.8 67.855 81.176l13.282-26.621 13.285 26.62 26.566 53.25Zm0 0"/></g><g clip-path="url(#g)"><path fill="#fff" d="m306.953 294.18-13.285 26.625-13.281-26.625-13.285-26.625-13.282-26.621-13.285-26.625-13.281-26.625-13.285-26.637-13.281-26.621-13.286-26.625-13.28 26.625-13.286 26.62-13.281 26.638-13.285 26.625-13.282 26.625-13.285 26.62-13.281 26.626-13.285 26.625-13.282-26.625 13.282-26.625 13.285-26.621 13.281-26.625 13.285-26.625 13.282-26.637 13.285-26.621 13.28-26.625 13.286-26.625 13.281-26.621 13.286 26.62 13.28 26.626 13.286 26.625 13.281 26.62 13.285 26.638 13.282 26.625 13.285 26.625 13.281 26.62Zm0 0"/></g></svg>