<svg xmlns="http://www.w3.org/2000/svg" width="500" height="500" version="1.0" viewBox="0 0 375 375"><defs><clipPath id="a"><path d="M240 54.555h67V188h-67Zm0 0"/></clipPath><clipPath id="b"><path d="M134 187h94v133.805h-94Zm0 0"/></clipPath><clipPath id="c"><path d="M67.777 54.555H135V188H67.777Zm0 0"/></clipPath><clipPath id="d"><path d="M240 54.555h67V188h-67Zm0 0"/></clipPath><clipPath id="e"><path d="M134 187h94v133.805h-94Zm0 0"/></clipPath><clipPath id="f"><path d="M67.777 54.555H135V188H67.777Zm0 0"/></clipPath><clipPath id="g"><path d="M67.777 54.555H307v266.25H67.777Zm0 0"/></clipPath></defs><g clip-path="url(#a)"><path fill="#26dc6a" d="M306.953 81.176 293.668 107.8l-13.281 26.625-13.285 26.62-13.282 26.638-13.285-26.637 13.285-26.621 26.567-53.25 13.281-26.621Zm0 0"/></g><g clip-path="url(#b)"><path fill="#26dc6a" d="m187.402 320.805-13.28-26.625-13.286-26.625-13.281-26.621-13.285-26.625 13.285-26.625 13.28 26.625 13.286 26.625 13.281 26.62 13.286-26.62 13.28-26.625 13.286 26.625-13.285 26.62-13.281 26.626-13.286 26.625"/></g><g clip-path="url(#c)"><path fill="#26dc6a" d="m134.27 161.047-13.282 26.637-13.285-26.637-13.281-26.621L81.137 107.8 67.855 81.176l13.282-26.621 13.285 26.62 26.566 53.25Zm0 0"/></g><g clip-path="url(#d)"><path fill="#26dc6a" d="M306.953 81.176 293.668 107.8l-13.281 26.625-13.285 26.62-13.282 26.638-13.285-26.637 13.285-26.621 26.567-53.25 13.281-26.621Zm0 0"/></g><g clip-path="url(#e)"><path fill="#26dc6a" d="m187.402 320.805-13.336-26.625-13.285-26.625-13.281-26.621-13.285-26.625 13.285-26.625 13.281 26.625 13.285 26.625 7.633 15.332c.262.527.594 1.007.988 1.445a6.37 6.37 0 0 0 2.938 1.824 6.318 6.318 0 0 0 3.457 0 6.427 6.427 0 0 0 1.598-.707c.5-.312.949-.683 1.343-1.117.395-.438.723-.918.985-1.445l7.625-15.332 13.281-26.625 13.285 26.625-13.285 26.62-13.281 26.626-13.285 26.625"/></g><g clip-path="url(#f)"><path fill="#26dc6a" d="m134.27 161.047-13.282 26.637-13.285-26.637-13.281-26.621L81.137 107.8 67.855 81.176l13.282-26.621 13.285 26.62 26.566 53.25Zm0 0"/></g><g clip-path="url(#g)"><path fill="#171717" d="m306.953 294.18-13.285 26.625-13.281-26.625-13.285-26.625-13.282-26.621-13.285-26.625-13.281-26.625-13.285-26.637-13.281-26.621-13.286-26.625-13.28 26.625-13.286 26.62-13.281 26.638-13.285 26.625-13.282 26.625-13.285 26.62-13.281 26.626-13.285 26.625-13.282-26.625 13.282-26.625 13.285-26.621 13.281-26.625 13.285-26.625 13.282-26.637 13.285-26.621 13.28-26.625 13.286-26.625 13.281-26.621 13.286 26.62 13.28 26.626 13.286 26.625 13.281 26.62 13.285 26.638 13.282 26.625 13.285 26.625 13.281 26.62Zm0 0"/></g></svg>